<?xml version="1.0" encoding="utf-8"?>
<svg version="1.1" xmlns="http://www.w3.org/2000/svg" xmlns:xlink="http://www.w3.org/1999/xlink" x="0px" y="0px"
	 viewBox="0 0 64 64" style="enable-background:new 0 0 64 64;" xml:space="preserve">
	<!-- style -->
	<polygon class="outer-envelope" points="33.5,2.1 33.5,1.6 30.5,1.6 30.5,2.1 29.9,2.1 29.9,5.1 30.5,5.1 30.5,5.7 31.1,5.7 31.1,18.9 32.9,18.9 32.9,5.7 33.5,5.7 33.5,5.1 34.1,5.1 34.1,2.1"/>
	<polygon class="inner-envelope" points="33.5,2.6 33.1,2.6 33.1,2.1 30.9,2.1 30.9,2.6 30.5,2.6 30.5,4.7 30.9,4.7 30.9,5.1 33.1,5.1 33.1,4.7 33.5,4.7"/>
	<polygon class="outer-envelope" points="30.5,62.2 30.5,62.8 33.5,62.8 33.5,62.2 34.1,62.2 34.1,59.2 33.5,59.2 33.5,58.7 32.9,58.7 32.9,45.5 31.1,45.5 31.1,58.7 30.5,58.7 30.5,59.2 29.9,59.2 29.9,62.2"/>
  <polygon class="inner-envelope" points="30.5,61.8 30.9,61.8 30.9,62.2 33.1,62.2 33.1,61.8 33.5,61.8 33.5,59.6 33.1,59.6 33.1,59.2 30.9,59.2 30.9,59.6 30.5,59.6"/>
	<polygon class="outer-envelope" points="62,33.7 62.6,33.7 62.6,30.7 62,30.7 62,30.1 59,30.1 59,30.7 58.5,30.7 	58.5,31.3 45.3,31.3 45.3,33.1 58.5,33.1 58.5,33.7 59,33.7 59,34.2 62,34.2"/>
	<polygon class="inner-envelope" points="61.6,33.7 61.6,33.3 62,33.3 62,31.1 61.6,31.1 61.6,30.7 59.5,30.7 59.5,31.1 59,31.1 59,33.3 59.5,33.3 59.5,33.7"/>
	<polygon class="outer-envelope" points="2,30.7 1.4,30.7 1.4,33.7 2,33.7 2,34.2 5,34.2 5,33.7 5.5,33.7 5.5,33.1 18.7,33.1 18.7,31.3 5.5,31.3 5.5,30.7 5,30.7 5,30.1 2,30.1"/>
	<polygon class="inner-envelope" points="2.4,30.7 2.4,31.1 2,31.1 2,33.3 2.4,33.3 2.4,33.7 4.5,33.7 4.5,33.3 5,33.3 5,31.1 4.5,31.1 4.5,30.7"/>
	<polygon class="outer-envelope" points="54.3,12 54.7,11.6 52.6,9.5 52.2,9.9 51.8,9.5 49.7,11.6 50.1,12 49.7,12.4 50.1,12.8 40.8,22.2 42,23.4 51.4,14.1 51.8,14.5 52.2,14.1 52.6,14.5 54.7,12.4"/>
	<polygon class="inner-envelope" points="54,12.3 53.7,12 54,11.7 52.5,10.2 52.2,10.5 51.9,10.2 50.4,11.7 50.6,12 50.4,12.3 51.9,13.8 52.2,13.5 52.5,13.8"/>
	<polygon class="outer-envelope" points="9.7,52.4 9.3,52.8 11.4,54.9 11.8,54.5 12.2,54.9 14.3,52.8 13.9,52.4 14.3,52 13.9,51.5 23.2,42.2 22,40.9 12.6,50.3 12.2,49.9 11.8,50.3 11.4,49.9 9.3,52"/>
	<polygon class="inner-envelope" points="10,52.1 10.3,52.4 10,52.7 11.5,54.2 11.8,53.9 12.1,54.2 13.6,52.7 13.4,52.4 13.6,52.1 12.1,50.5 11.8,50.8 11.5,50.5"/>

	<polygon class="outer-envelope" points="52.2,54.5 52.6,54.9 54.7,52.8 54.3,52.4 54.7,52 52.6,49.9 52.2,50.3 51.8,49.9 51.4,50.3 42,40.9 40.8,42.2 50.1,51.5 49.7,52 50.1,52.4 49.7,52.8 51.8,54.9"/>
	<polygon class="inner-envelope" points="51.9,54.2 52.2,53.9 52.5,54.2 54,52.7 53.7,52.4 54,52.1 52.5,50.5 52.2,50.8 51.9,50.5 50.4,52.1 50.6,52.4 50.4,52.7"/>
	<polygon class="outer-envelope" points="11.8,9.9 11.4,9.5 9.3,11.6 9.7,12 9.3,12.4 11.4,14.5 11.8,14.1 12.2,14.5 12.6,14.1 22,23.4 23.2,22.2 13.9,12.8 14.3,12.4 13.9,12 14.3,11.6 12.2,9.5"/>
	<polygon class="inner-envelope" points="12.1,10.2 11.8,10.5 11.5,10.2 10,11.7 10.3,12 10,12.3 11.5,13.8 11.8,13.5 12.1,13.8 13.6,12.3 13.4,12 13.6,11.7"/>

	<polygon class="body-5" points="51.8,28.1 51.8,23.9 50.7,23.9 50.7,21.8 49.6,21.8 49.6,20.8 48.7,20.8 48.7,18.7 47.6,18.7 47.6,17.7 46.6,17.7 46.6,16.7 45.5,16.7 45.5,15.6 43.5,15.6 43.5,14.7 42.4,14.7 42.4,13.6 40.3,13.6 40.3,12.5 36.2,12.5 36.2,11.5 28,11.5 28,12.5 23.9,12.5 23.9,13.6 21.8,13.6 21.8,14.7 20.8,14.7 20.8,15.6 18.7,15.6 18.7,16.7 17.6,16.7 17.6,17.7 16.7,17.7 16.7,18.7 15.6,18.7 15.6,20.8 14.7,20.8 14.7,21.8 13.6,21.8 13.6,23.9 12.5,23.9 12.5,28.1 11.4,28.1 11.4,36.2 12.5,36.2 12.5,40.4 13.6,40.4 13.6,42.5 14.7,42.5 14.7,43.5 15.6,43.5 15.6,45.6 16.7,45.6 16.7,46.6 17.6,46.6 17.6,47.6 18.7,47.6 18.7,48.7 20.8,48.7 20.8,49.6 21.8,49.6 21.8,50.7 23.9,50.7 23.9,51.8 28,51.8 28,52.8 36.2,52.8 36.2,51.8 40.3,51.8 40.3,50.7 42.4,50.7 42.4,49.6 43.5,49.6 43.5,48.7 45.5,48.7 45.5,47.6 46.6,47.6 46.6,46.6 47.6,46.6 47.6,45.6 48.7,45.6 48.7,43.5 49.6,43.5 49.6,42.5 50.7,42.5 50.7,40.4 51.8,40.4 51.8,36.2 52.8,36.2 52.8,28.1"/>
	<polygon class="body-4" points="49.8,28.5 49.8,24.7 48.9,24.7 48.9,22.8 47.9,22.8 47.9,21.9 47.1,21.9 47.1,20 46.1,20 46.1,19.1 45.2,19.1 45.2,18.2 44.2,18.2 44.2,17.2 42.4,17.2 42.4,16.4 41.4,16.4 41.4,15.4 39.5,15.4 39.5,14.4 35.8,14.4 35.8,13.5 28.4,13.5 28.4,14.4 24.7,14.4 24.7,15.4 22.8,15.4 22.8,16.4 21.9,16.4 21.9,17.2 20,17.2 20,18.2 19,18.2 19,19.1 18.2,19.1 18.2,20 17.2,20 17.2,21.9 16.4,21.9 16.4,22.8 15.4,22.8 15.4,24.7 14.4,24.7 14.4,28.5 13.5,28.5 13.5,35.8 14.4,35.8 14.4,39.6 15.4,39.6 15.4,41.5 16.4,41.5 16.4,42.4 17.2,42.4 17.2,44.3 18.2,44.3 18.2,45.2 19,45.2 19,46.1 20,46.1 20,47.1 21.9,47.1 21.9,47.9 22.8,47.9 22.8,48.9 24.7,48.9 24.7,49.9 28.4,49.9 28.4,50.8 35.8,50.8 35.8,49.9 39.5,49.9 39.5,48.9 41.4,48.9 41.4,47.9 42.4,47.9 42.4,47.1 44.2,47.1 44.2,46.1 45.2,46.1 45.2,45.2 46.1,45.2 46.1,44.3 47.1,44.3 47.1,42.4 47.9,42.4 47.9,41.5 48.9,41.5 48.9,39.6 49.8,39.6 49.8,35.8 50.8,35.8 50.8,28.5"/>
	<polygon class="body-3" points="47.2,29 47.2,25.8 46.4,25.8 46.4,24.2 45.6,24.2 45.6,23.4 44.9,23.4 44.9,21.8 44,21.8 44,21 43.3,21 43.3,20.2 42.5,20.2 42.5,19.4 40.9,19.4 40.9,18.7 40.1,18.7 40.1,17.8 38.5,17.8 38.5,17 35.3,17 35.3,16.2 29,16.2 29,17 25.8,17 25.8,17.8 24.2,17.8 24.2,18.7 23.4,18.7 23.4,19.4 21.8,19.4 21.8,20.2 21,20.2 21,21 20.2,21 20.2,21.8 19.4,21.8 19.4,23.4 18.7,23.4 18.7,24.2 17.8,24.2 17.8,25.8 17,25.8 17,29 16.2,29 16.2,35.3 17,35.3 17,38.5 17.8,38.5 17.8,40.1 18.7,40.1 18.7,40.9 19.4,40.9 19.4,42.5 20.2,42.5 20.2,43.3 21,43.3 21,44.1 21.8,44.1 21.8,44.9 23.4,44.9 23.4,45.6 24.2,45.6 24.2,46.4 25.8,46.4 25.8,47.3 29,47.3 29,48.1 35.3,48.1 35.3,47.3 38.5,47.3 38.5,46.4 40.1,46.4 40.1,45.6 40.9,45.6 40.9,44.9 42.5,44.9 42.5,44.1 43.3,44.1 43.3,43.3 44,43.3 44,42.5 44.9,42.5 44.9,40.9 45.6,40.9 45.6,40.1 46.4,40.1 46.4,38.5 47.2,38.5 47.2,35.3 48,35.3 48,29"/>
	<polygon class="body-2" points="44.8,29.5 44.8,26.8 44.1,26.8 44.1,25.5 43.4,25.5 43.4,24.8 42.8,24.8 42.8,23.5 42.1,23.5 42.1,22.8 41.5,22.8 41.5,22.2 40.8,22.2 40.8,21.5 39.4,21.5 39.4,20.9 38.8,20.9 38.8,20.2 37.4,20.2 37.4,19.5 34.8,19.5 34.8,18.8 29.5,18.8 29.5,19.5 26.8,19.5 26.8,20.2 25.5,20.2 25.5,20.9 24.8,20.9 24.8,21.5 23.5,21.5 23.5,22.2 22.8,22.2 22.8,22.8 22.2,22.8 22.2,23.5 21.4,23.5 21.4,24.8 20.9,24.8 20.9,25.5 20.2,25.5 20.2,26.8 19.5,26.8 19.5,29.5 18.8,29.5 18.8,34.8 19.5,34.8 19.5,37.4 20.2,37.4 20.2,38.8 20.9,38.8 20.9,39.5 21.4,39.5 21.4,40.8 22.2,40.8 22.2,41.5 22.8,41.5 22.8,42.1 23.5,42.1 23.5,42.8 24.8,42.8 24.8,43.4 25.5,43.4 25.5,44.1 26.8,44.1 26.8,44.8 29.5,44.8 29.5,45.5 34.8,45.5 34.8,44.8 37.4,44.8 37.4,44.1 38.8,44.1 38.8,43.4 39.4,43.4 39.4,42.8 40.8,42.8 40.8,42.1 41.5,42.1 41.5,41.5 42.1,41.5 42.1,40.8 42.8,40.8 42.8,39.5 43.4,39.5 43.4,38.8 44.1,38.8 44.1,37.4 44.8,37.4 44.8,34.8 45.4,34.8 45.4,29.5"/>
	<polygon class="body-1" points="42.4,30 42.4,27.8 41.9,27.8 41.9,26.7 41.3,26.7 41.3,26.2 40.8,26.2 40.8,25.1 40.3,25.1 40.3,24.5 39.7,24.5 39.7,24 39.2,24 39.2,23.4 38.1,23.4 38.1,23 37.5,23 37.5,22.4 36.4,22.4 36.4,21.8 34.3,21.8 34.3,21.3 30,21.3 30,21.8 27.8,21.8 27.8,22.4 26.7,22.4 26.7,23 26.1,23 26.1,23.4 25.1,23.4 25.1,24 24.5,24 24.5,24.5 24,24.5 24,25.1 23.4,25.1 23.4,26.2 22.9,26.2 22.9,26.7 22.4,26.7 22.4,27.8 21.8,27.8 21.8,30 21.3,30 21.3,34.3 21.8,34.3 21.8,36.5 22.4,36.5 22.4,37.6 22.9,37.6 22.9,38.1 23.4,38.1 23.4,39.2 24,39.2 24,39.8 24.5,39.8 24.5,40.3 25.1,40.3 25.1,40.9 26.1,40.9 26.1,41.3 26.7,41.3 26.7,41.9 27.8,41.9 27.8,42.5 30,42.5 30,43 34.3,43 34.3,42.5 36.4,42.5 36.4,41.9 37.5,41.9 37.5,41.3 38.1,41.3 38.1,40.9 39.2,40.9 39.2,40.3 39.7,40.3 39.7,39.8 40.3,39.8 40.3,39.2 40.8,39.2 40.8,38.1 41.3,38.1 41.3,37.6 41.9,37.6 41.9,36.5 42.4,36.5 42.4,34.3 43,34.3 43,30"/>
</svg>
