<?xml version="1.0" encoding="utf-8"?>
<!-- Generator: Adobe Illustrator 19.0.0, SVG Export Plug-In . SVG Version: 6.00 Build 0)  -->
<svg version="1.1" id="Layer_1" xmlns="http://www.w3.org/2000/svg" xmlns:xlink="http://www.w3.org/1999/xlink" x="0px" y="0px"
	 viewBox="0 0 240 160" style="enable-background:new 0 0 240 160;" xml:space="preserve">
<style type="text/css">
	.st0{opacity:0.8;fill:#3A4A68;}
	.st1{opacity:0.9;fill:#3A4A68;}
	.st2{opacity:0.7;fill:#3A4A68;}
	.st3{fill:#3A4A68;}
	.st4{fill:#576877;}
	.st5{filter:url(#Adobe_OpacityMaskFilter);}
	.st6{fill:url(#XMLID_205_);}
	.st7{mask:url(#XMLID_2_);}
	.st8{fill:#314060;}
	.st9{fill:#47596D;}
</style>
<g id="XMLID_3_">
	<path id="XMLID_4_" class="st0" d="M32.1,80.1C32.1,80.1,32.1,80.1,32.1,80.1l0.1-5.5l0.7-4v0l2.6-4.9v0l4.4-2.6l5.8-0.6l4.3,1
		c0,0,0,0,0,0l3.7,2.4c0,0,0,0,0,0l2.6,4.4v0l0.8,4.6l0.1,3.7L57,83c0,0,0,0,0,0l-1.4,6.4h0l-3.3,4.1c0,0,0,0,0,0l-3.8,1.9l-3.6,0.4
		h0l-4.5-0.6l0,0L36.3,93c0,0,0,0,0,0l-2.1-2.6l-1.7-4.7L32.1,80.1z M48.8,83.3l1.3-7l-2.7-5.8l-3.5-0.8l-3.5,4l-0.1,3.1l0.1,7.2
		l1.5,3.7l3.6-0.2L48.8,83.3z"/>
	<path id="XMLID_171_" class="st1" d="M87,75.8v7l-0.2,4.4l-0.3,2.2v0c0,0,0,0,0,0l-3.6,4.2v0l-3.6,2.1c0,0,0,0,0,0L75,95.9
		l-4.5-0.1c0,0,0,0,0,0l-3.2-2c0,0,0,0,0,0l-4.5-5.3c0,0,0,0,0,0s0,0,0,0l-0.7-4.4v0v-3.7L61.8,76l-0.2-3v-5.1l0.3-3.8c0,0,0,0,0,0
		l2.3-1.6c0,0,0,0,0,0s0,0,0,0l5.6,1.1c0,0,0,0,0,0c0,0,0,0,0,0c0,0,0,0,0,0v0l-0.8,4.1l1,5.7c0,0,0,0,0,0L70,80.1l0.3,2.8l2.3,6.2
		l5.9-2.5l0.3-6.7l-0.2-4.2l0.1-3v-6.2v-3.2c0,0,0,0,0,0c0,0,0,0,0,0l4.4-0.4l3.6,0.7c0,0,0,0,0,0c0,0,0,0,0,0c0,0,0,0,0,0v0v6.7
		L87,75.8z M78.9,74.7l0,0.8l0,0V74.7z M78.8,75.7l0.1,1.1L78.8,75.7L78.8,75.7z M78.9,82l-0.1,1.9l0.1-1V82z M78.9,75.5L78.9,75.5
		L78.9,75.5z M86.6,87.7l0.1-0.5h0L86.6,87.7z M86.7,86.2l-0.1,0.7l0,0L86.7,86.2z"/>
	<path id="XMLID_289_" class="st2" d="M112.3,69.7C112.3,69.7,112.3,69.7,112.3,69.7C112.3,69.7,112.3,69.7,112.3,69.7L112.3,69.7
		L112.3,69.7l-2.7,0.1h-5.1v4.7v6.7l-0.3,5.5l0.3,5l0.1,3.8v0c0,0,0,0,0,0l-4.5,0.4h0l-3.6-0.2c0,0,0,0,0,0c0,0,0,0,0,0c0,0,0,0,0,0
		l-0.2-3.7l0.3-5.5v-5.6c0,0,0,0,0,0l-0.1-5.7l-0.2-5.3L92.6,70l-4.2-0.2c0,0,0,0,0,0c0,0,0,0,0,0c0,0,0,0,0,0L88,66.5l0.5-4.1
		c0,0,0,0,0,0v0c0,0,0,0,0,0h6.8l6.9,0.2l6.4,0.3l4-0.4c0,0,0,0,0,0v0v0L112.3,69.7z"/>
	<path id="XMLID_372_" class="st3" d="M140.3,84.9L140.3,84.9L140.3,84.9l-1.6,5l-0.1,0l0,0.1l-4.3,4.5l0,0v0.1l-6.1,1.4l0-0.1v0.1
		l-4.2-0.2v0v0l-4.1-2.2v0l0,0l-2.7-4.4l0,0l0,0l-2.2-5l0.1,0h-0.1v-6.8h0.1l-0.1,0l0.4-5.3h0l0,0l1.8-4.7l0,0l0,0l3.6-3.1l0,0l0,0
		l3.5-1.5l0,0.1v-0.1l4.4-0.2v0l0,0l5.1,1.5l0,0.1l0-0.1l3.4,2.4l0,0l0,0l2.3,3.2l0,0l0,0l1.2,3.8l-8.1,0.2v-0.1l-0.1,0l-2.4-3.4
		l-3-0.5l-2.8,1.6l-1.1,4.7l-0.1,4.5l0.4,5.3l4.8,3.1l4.1-3.7l-1.6-1.9l-2.8,0.1v0h-0.1l-0.3-6.5h0.1v-0.1l6-0.1v0v0l6.4,1.1v0.1
		h0.1L140.3,84.9z"/>
	<path id="XMLID_539_" class="st4" d="M145.3,83.7L145.3,83.7L146,82l0,0l0,0l2.7-6.8l1.3-4.4l0,0l0,0l1.9-3.4l1.2-4.8h0.1v-0.1
		l6.2-0.2v0.1l0,0l2,5.5l-0.1,0l0.1,0l1.6,4.6l1.7,4.6l0,0l0,0l1.1,4.3l2.9,6.4l0,0h0l-0.2,3.6l2.9,4.2l0,0v0l-5.5-0.3l-2.9,0.1
		v-0.1l-0.1,0l-1.8-4.6l-9.8-0.1l-1.6,4.8h0v0l-5.2,0.2v-0.1v0l-3.4-0.3l0-0.1h-0.1l1.5-4.7L145.3,83.7z M142.9,90.6 M159.2,84
		l-1.2-3.7l-1.6-4.9l-1.5,3.2l-1.2,5.3L159.2,84z M170.7,95.5L170.7,95.5L170.7,95.5z"/>
	<path id="XMLID_644_" class="st4" d="M173.5,83.8l-0.1-6.1l-0.3-7.1l-0.1-4.4l0.1-3.7c0,0,0,0,0,0s0,0,0,0h0l4.1-0.1h3.9
		c0,0,0,0,0,0s0,0,0,0h0v0l0.1,3.5l0.1,4.8l-0.2,4.7v3.7l-0.4,3.9l0.1,4.9l0.1,5.5l0.2,2.1v0h0v0c0,0,0,0,0,0l-5.4,0.3l-2.6-0.3
		c0,0,0,0,0,0v0c0,0,0,0,0,0l-0.2-7.1L173.5,83.8z"/>
	<path id="XMLID_690_" class="st0" d="M194.3,95.6C194.2,95.6,194.2,95.6,194.3,95.6C194.2,95.6,194.2,95.6,194.3,95.6l-4.2-0.2
		l-3.8,0.3c0,0,0,0,0,0s0,0,0,0c0,0,0,0,0,0l-0.2-6.2v-4.7l0.1-6.3c0,0,0,0,0,0l1.1-4l-1.3-5.6v0l0.2-6.2h0c0,0,0,0,0,0c0,0,0,0,0,0
		c0,0,0,0,0,0l7.1-0.1c0,0,0,0,0,0s0,0,0,0l3.5,5.6l2.1,2.9l0.8,2.8l4.4,3.8l-0.1-6.4l0.2-5.9l-0.4-2.9c0,0,0,0,0,0c0,0,0,0,0,0
		s0,0,0,0l6.2,0.1c0,0,0,0,0,0h0l2,5.5c0,0,0,0,0,0v6.8l-0.1,4.3l0,4l0,5.4l0,7.2c0,0,0,0,0,0h0c0,0,0,0,0,0l-7-0.2c0,0,0,0,0,0
		c0,0,0,0,0,0c0,0,0,0,0,0l-1.7-4.6l-1.6-3.2l-3.9-3.6l-3.3-5l-0.1,0.2v8.7L194.3,95.6C194.3,95.6,194.3,95.6,194.3,95.6
		C194.3,95.6,194.3,95.6,194.3,95.6z"/>
</g>
<defs>
	<filter id="Adobe_OpacityMaskFilter" filterUnits="userSpaceOnUse" x="5.1" y="30.1" width="229.6" height="100">
		<feColorMatrix  type="matrix" values="1 0 0 0 0  0 1 0 0 0  0 0 1 0 0  0 0 0 1 0"/>
	</filter>
</defs>
<mask maskUnits="userSpaceOnUse" x="5.1" y="30.1" width="229.6" height="100" id="XMLID_2_">
	<g id="XMLID_217_" class="st5">
		
			<radialGradient id="XMLID_205_" cx="120.4921" cy="80.6504" r="128.2211" fx="129.674" fy="80.3155" gradientTransform="matrix(0.9999 1.484524e-02 -5.844478e-03 0.3937 0.4846 47.1136)" gradientUnits="userSpaceOnUse">
			<stop  offset="0.3399" style="stop-color:#FFFFFF"/>
			<stop  offset="0.3856" style="stop-color:#E6E6E5"/>
			<stop  offset="0.4826" style="stop-color:#A5A5A4"/>
			<stop  offset="0.5032" style="stop-color:#969695"/>
			<stop  offset="0.8356" style="stop-color:#333332"/>
			<stop  offset="1" style="stop-color:#000000"/>
		</radialGradient>
		<ellipse id="XMLID_218_" class="st6" cx="127.7" cy="81.3" rx="136.5" ry="62.5"/>
	</g>
</mask>
<g id="XMLID_6_" class="st7">
	<circle id="XMLID_8_" class="st8" cx="46.7" cy="44.6" r="1.3"/>
	<circle id="XMLID_9_" class="st8" cx="49.9" cy="53.6" r="2.7"/>
	<circle id="XMLID_17_" class="st8" cx="26.9" cy="76.5" r="2.7"/>
	<circle id="XMLID_18_" class="st8" cx="43.7" cy="107.3" r="2.7"/>
	<circle id="XMLID_36_" class="st8" cx="29.6" cy="98.5" r="2.7"/>
	<circle id="XMLID_19_" class="st8" cx="69.2" cy="104.7" r="2.7"/>
	<circle id="XMLID_21_" class="st8" cx="85.1" cy="107.3" r="2.7"/>
	<circle id="XMLID_22_" class="st8" cx="112.4" cy="98.5" r="2.7"/>
	<circle id="XMLID_23_" class="st8" cx="123" cy="117.9" r="2.7"/>
	<circle id="XMLID_24_" class="st9" cx="136.2" cy="103.8" r="2.7"/>
	<circle id="XMLID_28_" class="st9" cx="160" cy="98.5" r="2.7"/>
	<circle id="XMLID_29_" class="st9" cx="183.8" cy="102.9" r="2.7"/>
	<circle id="XMLID_30_" class="st8" cx="200.6" cy="98.5" r="2.7"/>
	<circle id="XMLID_31_" class="st8" cx="215.6" cy="60.6" r="2.7"/>
	<circle id="XMLID_32_" class="st8" cx="225.3" cy="87.1" r="2.7"/>
	<circle id="XMLID_25_" class="st9" cx="143.3" cy="58.9" r="2.7"/>
	<circle id="XMLID_26_" class="st9" cx="169.7" cy="52.7" r="2.7"/>
	<circle id="XMLID_27_" class="st8" cx="185.6" cy="57.1" r="2.7"/>
	<circle id="XMLID_33_" class="st8" cx="199.7" cy="45.6" r="2.7"/>
	<circle id="XMLID_34_" class="st8" cx="124.8" cy="48.3" r="2.7"/>
	<circle id="XMLID_16_" class="st8" cx="87.8" cy="51.8" r="2.7"/>
	<circle id="XMLID_35_" class="st8" cx="104.5" cy="57.1" r="2.7"/>
	<circle id="XMLID_10_" class="st8" cx="54.1" cy="43.8" r="1.4"/>
	<circle id="XMLID_37_" class="st8" cx="29.4" cy="65.9" r="1.4"/>
	<circle id="XMLID_15_" class="st8" cx="40.8" cy="50.9" r="1.4"/>
	<circle id="XMLID_38_" class="st8" cx="25.8" cy="69.4" r="1.4"/>
	<circle id="XMLID_39_" class="st8" cx="23.2" cy="81.7" r="1.4"/>
	<circle id="XMLID_40_" class="st8" cx="27.6" cy="87.9" r="1.4"/>
	<circle id="XMLID_41_" class="st8" cx="23.2" cy="98.5" r="1.4"/>
	<circle id="XMLID_42_" class="st8" cx="29.4" cy="107.3" r="1.4"/>
	<circle id="XMLID_43_" class="st8" cx="39.1" cy="102" r="1.4"/>
	<circle id="XMLID_44_" class="st8" cx="52.3" cy="101.1" r="1.4"/>
	<circle id="XMLID_45_" class="st8" cx="59.3" cy="98.5" r="1.4"/>
	<circle id="XMLID_46_" class="st8" cx="59.3" cy="106.4" r="1.4"/>
	<circle id="XMLID_47_" class="st8" cx="52.3" cy="111.7" r="1.4"/>
	<circle id="XMLID_48_" class="st8" cx="61.1" cy="124.9" r="1.4"/>
	<circle id="XMLID_49_" class="st8" cx="44.4" cy="119.6" r="1.4"/>
	<circle id="XMLID_50_" class="st8" cx="35.5" cy="119.6" r="1.4"/>
	<circle id="XMLID_51_" class="st8" cx="14.4" cy="90.5" r="1.4"/>
	<circle id="XMLID_52_" class="st8" cx="16.1" cy="74.7" r="1.4"/>
	<circle id="XMLID_53_" class="st8" cx="37.3" cy="57.9" r="1.4"/>
	<circle id="XMLID_54_" class="st8" cx="31.1" cy="51.8" r="1.4"/>
	<circle id="XMLID_55_" class="st8" cx="24.1" cy="57.9" r="1.4"/>
	<circle id="XMLID_56_" class="st8" cx="56.7" cy="61.4" r="1.4"/>
	<circle id="XMLID_57_" class="st8" cx="61.1" cy="50.9" r="1.4"/>
	<circle id="XMLID_58_" class="st8" cx="73.5" cy="61.4" r="1.4"/>
	<circle id="XMLID_59_" class="st8" cx="77.9" cy="54.4" r="1.4"/>
	<circle id="XMLID_60_" class="st8" cx="77.9" cy="44.7" r="1.4"/>
	<circle id="XMLID_61_" class="st8" cx="88.4" cy="37.6" r="1.4"/>
	<circle id="XMLID_62_" class="st8" cx="97.3" cy="53.5" r="1.4"/>
	<circle id="XMLID_63_" class="st8" cx="90.2" cy="58.8" r="1.4"/>
	<circle id="XMLID_64_" class="st8" cx="104.3" cy="49.1" r="1.4"/>
	<circle id="XMLID_70_" class="st8" cx="111.4" cy="37.6" r="1.4"/>
	<circle id="XMLID_65_" class="st8" cx="95.5" cy="42.9" r="1.4"/>
	<circle id="XMLID_66_" class="st8" cx="111.4" cy="47.3" r="1.4"/>
	<circle id="XMLID_67_" class="st8" cx="114" cy="56.2" r="1.4"/>
	<circle id="XMLID_68_" class="st8" cx="121.9" cy="59.7" r="1.4"/>
	<circle id="XMLID_71_" class="st8" cx="133.4" cy="58.8" r="1.4"/>
	<circle id="XMLID_72_" class="st8" cx="136" cy="50.9" r="1.4"/>
	<circle id="XMLID_73_" class="st8" cx="109.6" cy="87.9" r="1.4"/>
	<circle id="XMLID_74_" class="st8" cx="102.5" cy="104.6" r="1.4"/>
	<circle id="XMLID_75_" class="st8" cx="90.2" cy="95.8" r="1.4"/>
	<circle id="XMLID_76_" class="st8" cx="80.5" cy="102.9" r="1.4"/>
	<circle id="XMLID_77_" class="st8" cx="77.9" cy="114.3" r="1.4"/>
	<circle id="XMLID_78_" class="st8" cx="95.5" cy="111.7" r="1.4"/>
	<circle id="XMLID_79_" class="st8" cx="123.7" cy="101.1" r="1.4"/>
	<circle id="XMLID_80_" class="st8" cx="115.8" cy="106.4" r="1.4"/>
	<circle id="XMLID_81_" class="st8" cx="130.8" cy="109.9" r="1.4"/>
	<circle id="XMLID_82_" class="st9" cx="144.9" cy="101.1" r="1.4"/>
	<circle id="XMLID_83_" class="st9" cx="156.3" cy="103.8" r="1.4"/>
	<circle id="XMLID_84_" class="st9" cx="148.4" cy="108.2" r="1.4"/>
	<circle id="XMLID_85_" class="st9" cx="145.7" cy="67.6" r="1.4"/>
	<circle id="XMLID_86_" class="st9" cx="151.9" cy="56.2" r="1.4"/>
	<circle id="XMLID_87_" class="st9" cx="147.5" cy="50" r="1.4"/>
	<circle id="XMLID_94_" class="st8" cx="188.1" cy="46.5" r="1.4"/>
	<circle id="XMLID_95_" class="st8" cx="196" cy="56.2" r="1.4"/>
	<circle id="XMLID_96_" class="st8" cx="212.7" cy="48.2" r="1.4"/>
	<circle id="XMLID_97_" class="st8" cx="204.8" cy="57" r="1.4"/>
	<circle id="XMLID_98_" class="st8" cx="203" cy="50" r="1.4"/>
	<circle id="XMLID_99_" class="st8" cx="218" cy="71.1" r="1.4"/>
	<circle id="XMLID_100_" class="st8" cx="216.3" cy="84.4" r="1.4"/>
	<circle id="XMLID_101_" class="st8" cx="222.4" cy="79.1" r="1.4"/>
	<circle id="XMLID_102_" class="st8" cx="226.8" cy="65.9" r="1.4"/>
	<circle id="XMLID_104_" class="st8" cx="218" cy="100.2" r="1.4"/>
	<circle id="XMLID_105_" class="st8" cx="208.3" cy="113.5" r="1.4"/>
	<circle id="XMLID_106_" class="st8" cx="208.3" cy="105.5" r="1.4"/>
	<circle id="XMLID_107_" class="st8" cx="194.2" cy="111.7" r="1.4"/>
	<circle id="XMLID_108_" class="st8" cx="192.5" cy="105.5" r="1.4"/>
	<circle id="XMLID_109_" class="st9" cx="170.4" cy="102.9" r="1.4"/>
	<circle id="XMLID_110_" class="st9" cx="181" cy="109.9" r="1.4"/>
	<circle id="XMLID_111_" class="st9" cx="160.7" cy="112.6" r="1.4"/>
	<circle id="XMLID_112_" class="st9" cx="173.9" cy="123.2" r="1.4"/>
	<circle id="XMLID_103_" class="st8" cx="226.8" cy="52.6" r="1.4"/>
	<circle id="XMLID_88_" class="st9" cx="159" cy="48.2" r="1.4"/>
	<circle id="XMLID_89_" class="st9" cx="162.5" cy="57" r="1.4"/>
	<circle id="XMLID_90_" class="st9" cx="166.9" cy="65.9" r="1.4"/>
	<circle id="XMLID_91_" class="st9" cx="178.4" cy="52.6" r="1.4"/>
	<circle id="XMLID_92_" class="st9" cx="170.4" cy="37.6" r="1.4"/>
	<circle id="XMLID_93_" class="st8" cx="135.2" cy="41.2" r="1.4"/>
	<circle id="XMLID_69_" class="st8" cx="119.3" cy="52.6" r="1.4"/>
	<circle id="XMLID_12_" class="st8" cx="68.9" cy="47.1" r="0.6"/>
	<circle id="XMLID_13_" class="st8" cx="68.3" cy="54.5" r="0.6"/>
	<circle id="XMLID_113_" class="st8" cx="64.8" cy="114.4" r="0.6"/>
	<circle id="XMLID_114_" class="st8" cx="52.4" cy="129.4" r="0.6"/>
	<circle id="XMLID_157_" class="st8" cx="53.3" cy="120.6" r="0.6"/>
	<circle id="XMLID_158_" class="st8" cx="92.1" cy="119.7" r="0.6"/>
	<circle id="XMLID_159_" class="st8" cx="78" cy="124.1" r="0.6"/>
	<circle id="XMLID_160_" class="st8" cx="105.3" cy="110.9" r="0.6"/>
	<circle id="XMLID_161_" class="st8" cx="112.4" cy="118" r="0.6"/>
	<circle id="XMLID_162_" class="st8" cx="102.7" cy="118.8" r="0.6"/>
	<circle id="XMLID_163_" class="st8" cx="86.8" cy="115.3" r="0.6"/>
	<circle id="XMLID_164_" class="st8" cx="123.8" cy="108.3" r="0.6"/>
	<circle id="XMLID_165_" class="st9" cx="141.5" cy="109.1" r="0.6"/>
	<circle id="XMLID_166_" class="st9" cx="134.4" cy="115.3" r="0.6"/>
	<circle id="XMLID_167_" class="st9" cx="152.9" cy="113.5" r="0.6"/>
	<circle id="XMLID_168_" class="st9" cx="136.2" cy="96.8" r="0.6"/>
	<circle id="XMLID_169_" class="st9" cx="153.8" cy="94.2" r="0.6"/>
	<circle id="XMLID_170_" class="st9" cx="152" cy="100.3" r="0.6"/>
	<circle id="XMLID_173_" class="st9" cx="167" cy="98.6" r="0.6"/>
	<circle id="XMLID_174_" class="st9" cx="163.5" cy="105.6" r="0.6"/>
	<circle id="XMLID_177_" class="st9" cx="165.3" cy="118" r="0.6"/>
	<circle id="XMLID_178_" class="st9" cx="178.5" cy="99.4" r="0.6"/>
	<circle id="XMLID_179_" class="st9" cx="186.4" cy="114.4" r="0.6"/>
	<circle id="XMLID_180_" class="st9" cx="142.3" cy="116.2" r="0.6"/>
	<circle id="XMLID_181_" class="st9" cx="145.9" cy="125" r="0.6"/>
	<circle id="XMLID_182_" class="st9" cx="182" cy="36" r="0.6"/>
	<circle id="XMLID_183_" class="st9" cx="179.4" cy="44.8" r="0.6"/>
	<circle id="XMLID_184_" class="st8" cx="194.3" cy="51" r="0.6"/>
	<circle id="XMLID_185_" class="st8" cx="193.5" cy="43" r="0.6"/>
	<circle id="XMLID_186_" class="st8" cx="190.8" cy="59.8" r="0.6"/>
	<circle id="XMLID_187_" class="st9" cx="174.1" cy="58.9" r="0.6"/>
	<circle id="XMLID_188_" class="st8" cx="199.6" cy="65.9" r="0.6"/>
	<circle id="XMLID_189_" class="st8" cx="200.5" cy="58.9" r="0.6"/>
	<circle id="XMLID_190_" class="st8" cx="199.6" cy="90.6" r="0.6"/>
	<circle id="XMLID_191_" class="st8" cx="214.6" cy="76.5" r="0.6"/>
	<circle id="XMLID_192_" class="st8" cx="227" cy="72.1" r="0.6"/>
	<circle id="XMLID_193_" class="st8" cx="220.8" cy="54.5" r="0.6"/>
	<circle id="XMLID_194_" class="st8" cx="219" cy="46.5" r="0.6"/>
	<circle id="XMLID_195_" class="st8" cx="209.3" cy="39.5" r="0.6"/>
	<circle id="XMLID_196_" class="st8" cx="201.4" cy="31.6" r="0.6"/>
	<circle id="XMLID_197_" class="st8" cx="226.1" cy="43.9" r="0.6"/>
	<circle id="XMLID_198_" class="st8" cx="233.1" cy="76.5" r="0.6"/>
	<circle id="XMLID_204_" class="st8" cx="230.5" cy="101.2" r="0.6"/>
	<circle id="XMLID_199_" class="st8" cx="234" cy="63.3" r="0.6"/>
	<circle id="XMLID_200_" class="st8" cx="6.6" cy="65.1" r="0.6"/>
	<circle id="XMLID_201_" class="st8" cx="9.2" cy="80.9" r="0.6"/>
	<circle id="XMLID_202_" class="st8" cx="5.7" cy="95.9" r="0.6"/>
	<circle id="XMLID_203_" class="st8" cx="8.3" cy="104.7" r="0.6"/>
	<circle id="XMLID_176_" class="st9" cx="173.2" cy="114.4" r="0.6"/>
	<circle id="XMLID_115_" class="st8" cx="32.1" cy="113.5" r="0.6"/>
	<circle id="XMLID_116_" class="st8" cx="17.2" cy="108.3" r="0.6"/>
	<circle id="XMLID_117_" class="st8" cx="14.5" cy="101.2" r="0.6"/>
	<circle id="XMLID_118_" class="st8" cx="22.4" cy="116.2" r="0.6"/>
	<circle id="XMLID_119_" class="st8" cx="17.2" cy="64.2" r="0.6"/>
	<circle id="XMLID_120_" class="st8" cx="18" cy="50.1" r="0.6"/>
	<circle id="XMLID_121_" class="st8" cx="33.9" cy="45.7" r="0.6"/>
	<circle id="XMLID_122_" class="st8" cx="40.1" cy="36" r="0.6"/>
	<circle id="XMLID_123_" class="st8" cx="62.1" cy="36" r="0.6"/>
	<circle id="XMLID_124_" class="st8" cx="74.5" cy="35.1" r="0.6"/>
	<circle id="XMLID_125_" class="st8" cx="100.9" cy="36" r="0.6"/>
	<circle id="XMLID_126_" class="st8" cx="87.7" cy="43.9" r="0.6"/>
	<circle id="XMLID_127_" class="st8" cx="91.2" cy="55.4" r="0.6"/>
	<circle id="XMLID_128_" class="st8" cx="109.7" cy="51" r="0.6"/>
	<circle id="XMLID_129_" class="st8" cx="117.7" cy="38.6" r="0.6"/>
	<circle id="XMLID_130_" class="st8" cx="117.7" cy="30.7" r="0.6"/>
	<circle id="XMLID_149_" class="st8" cx="74.5" cy="79.2" r="0.6"/>
	<circle id="XMLID_150_" class="st8" cx="76.2" cy="70.3" r="0.6"/>
	<circle id="XMLID_151_" class="st8" cx="58.6" cy="89.7" r="0.6"/>
	<circle id="XMLID_152_" class="st8" cx="43.6" cy="84.5" r="0.6"/>
	<circle id="XMLID_153_" class="st8" cx="47.1" cy="75.6" r="0.6"/>
	<circle id="XMLID_154_" class="st8" cx="42.7" cy="75.6" r="0.6"/>
	<circle id="XMLID_155_" class="st8" cx="71.8" cy="67.7" r="0.6"/>
	<circle id="XMLID_156_" class="st9" cx="171.4" cy="44.8" r="0.6"/>
	<circle id="XMLID_131_" class="st8" cx="127.4" cy="39.5" r="0.6"/>
	<circle id="XMLID_132_" class="st8" cx="117.7" cy="46.5" r="0.6"/>
	<circle id="XMLID_133_" class="st8" cx="124.7" cy="55.4" r="0.6"/>
	<circle id="XMLID_134_" class="st8" cx="130.9" cy="53.6" r="0.6"/>
	<circle id="XMLID_135_" class="st8" cx="129.1" cy="57.1" r="0.6"/>
	<circle id="XMLID_136_" class="st8" cx="115.9" cy="64.2" r="0.6"/>
	<circle id="XMLID_137_" class="st8" cx="108" cy="73.9" r="0.6"/>
	<circle id="XMLID_138_" class="st8" cx="110.6" cy="81.8" r="0.6"/>
	<circle id="XMLID_139_" class="st8" cx="91.2" cy="80" r="0.6"/>
	<circle id="XMLID_140_" class="st8" cx="92.1" cy="74.8" r="0.6"/>
	<circle id="XMLID_141_" class="st8" cx="89.4" cy="89.7" r="0.6"/>
	<circle id="XMLID_142_" class="st8" cx="93.9" cy="86.2" r="0.6"/>
	<circle id="XMLID_143_" class="st8" cx="93.9" cy="104.7" r="0.6"/>
	<circle id="XMLID_144_" class="st9" cx="144.1" cy="76.5" r="0.6"/>
	<circle id="XMLID_145_" class="st9" cx="145" cy="37.7" r="0.6"/>
	<circle id="XMLID_146_" class="st9" cx="156.4" cy="34.2" r="0.6"/>
	<circle id="XMLID_147_" class="st9" cx="149.4" cy="43.9" r="0.6"/>
	<circle id="XMLID_148_" class="st9" cx="141.5" cy="46.5" r="0.6"/>
	<circle id="XMLID_14_" class="st8" cx="58.8" cy="55.9" r="0.6"/>
</g>
</svg>
